<?xml version="1.0" encoding="iso-8859-1"?>
<!-- Uploaded to: SVG Repo, www.svgrepo.com, Generator: SVG Repo Mixer Tools -->
<!DOCTYPE svg PUBLIC "-//W3C//DTD SVG 1.1//EN" "http://www.w3.org/Graphics/SVG/1.1/DTD/svg11.dtd">
<svg fill="#000000" version="1.1" id="Capa_1" xmlns="http://www.w3.org/2000/svg" xmlns:xlink="http://www.w3.org/1999/xlink" 
	 width="800px" height="800px" viewBox="0 0 151.314 151.313"
	 xml:space="preserve">
<g>
	<g>
		<path d="M151.025,41.324c-4.45-49.68-65.562-35.062-75.367-6.792C65.851,6.262,4.74-8.356,0.289,41.324
			C-5.43,105.246,75.658,142.69,75.658,142.69S156.741,105.246,151.025,41.324z M87.543,103.023l-4.415-14.665H66.773l-4.076,14.665
			H49.304l17.469-57.142h16.952l17.721,57.142H87.543z"/>
		<path d="M74.821,55.545h-0.162c-0.854,3.396-1.694,7.719-2.634,11.023l-3.396,12.12H81.26l-3.558-12.12
			C76.692,63.179,75.675,58.935,74.821,55.545z"/>
	</g>
</g>
</svg>